<?xml version="1.0" standalone="no"?>
<!DOCTYPE svg PUBLIC "-//W3C//DTD SVG 20010904//EN"
 "http://www.w3.org/TR/2001/REC-SVG-20010904/DTD/svg10.dtd">
<svg version="1.0" xmlns="http://www.w3.org/2000/svg"
 width="1200.000000pt" height="1200.000000pt" viewBox="0 0 1200.000000 1200.000000"
 preserveAspectRatio="xMidYMid meet">

<g transform="translate(0.000000,1200.000000) scale(0.100000,-0.100000)"
fill="#000000" stroke="none">
<path d="M3770 10519 c-151 -61 -283 -118 -292 -126 -10 -9 -18 -30 -18 -47 0
-17 36 -177 80 -356 44 -179 76 -327 72 -331 -4 -3 -43 -16 -87 -29 -138 -39
-318 -101 -368 -127 -26 -13 -57 -38 -67 -56 -19 -30 -142 -398 -155 -459 -4
-21 -15 -30 -57 -43 -100 -33 -129 -82 -149 -257 -6 -53 -9 -170 -7 -260 4
-180 12 -210 63 -240 29 -16 36 -16 128 -1 58 10 101 13 106 7 4 -5 51 -175
104 -379 53 -203 184 -702 292 -1109 107 -406 193 -741 191 -744 -16 -15 -268
68 -401 133 -128 62 -345 205 -478 314 -86 72 -93 81 -106 132 -45 179 -178
310 -328 325 -117 11 -200 -69 -189 -183 6 -69 57 -163 115 -215 63 -56 179
-109 255 -116 55 -5 66 -10 121 -57 115 -97 348 -258 475 -327 147 -81 440
-178 536 -178 36 0 46 -4 54 -22 6 -13 57 -201 114 -418 58 -217 184 -694 281
-1060 97 -366 230 -870 297 -1120 197 -747 189 -720 220 -743 l27 -20 343 63
c418 77 845 156 913 169 27 5 51 8 52 7 1 -1 -9 -69 -22 -151 -43 -266 -57
-397 -64 -594 l-6 -194 -95 -2 c-228 -5 -535 -164 -605 -312 -41 -85 -28 -162
37 -217 51 -44 112 -59 247 -59 114 0 193 12 293 44 159 52 250 115 293 204
23 47 26 62 20 112 -13 119 -16 423 -6 558 15 193 80 627 96 643 3 3 62 16
132 29 118 22 471 88 786 146 90 17 130 21 136 13 4 -6 27 -58 51 -116 76
-188 271 -631 347 -790 54 -110 79 -176 88 -227 33 -184 163 -355 382 -504
169 -115 268 -150 368 -129 89 19 145 81 145 162 -1 52 -44 161 -94 236 -80
121 -237 246 -411 329 -77 36 -217 75 -240 67 -20 -8 -46 43 -282 581 -127
288 -184 427 -179 432 4 4 165 35 856 163 146 27 326 60 400 74 153 29 170 40
170 110 0 22 -11 169 -25 326 -13 157 -58 690 -100 1185 -41 495 -93 1113
-115 1372 -22 260 -40 477 -40 482 0 5 39 21 88 36 224 68 413 195 592 397
135 152 243 331 296 490 25 75 27 78 72 98 133 59 212 227 168 355 -8 26 -28
64 -43 83 l-27 35 40 76 c22 42 64 120 92 174 58 108 64 149 31 191 -27 35
-82 36 -129 1 -76 -56 -164 -210 -191 -335 -9 -43 -14 -51 -31 -48 -16 2 -26
21 -45 81 -25 81 -60 130 -101 142 -17 5 -30 -1 -53 -25 -31 -30 -32 -34 -26
-93 3 -34 15 -88 26 -120 l20 -58 -34 -48 c-76 -106 -68 -259 19 -374 l26 -34
-19 -54 c-90 -264 -381 -586 -625 -693 -61 -27 -157 -58 -163 -53 -1 2 -27
298 -58 658 -30 360 -73 868 -95 1129 -22 261 -40 482 -40 491 0 12 23 20 103
33 130 23 142 28 155 63 8 24 2 56 -33 178 -55 190 -79 253 -114 303 -36 49
-119 92 -176 92 l-42 0 -41 84 c-69 138 -223 340 -286 374 -26 14 -65 16 -261
15 -126 0 -302 -6 -390 -12 -727 -51 -1760 -200 -2653 -383 -111 -22 -205 -38
-209 -35 -3 4 -41 163 -84 354 -43 192 -83 365 -89 385 -11 40 -34 58 -72 58
-13 -1 -147 -51 -298 -111z m265 -66 c28 -111 144 -648 141 -651 -12 -11 -419
-103 -426 -96 -9 10 -152 595 -147 601 4 4 408 170 418 172 4 0 10 -11 14 -26z
m3771 -376 c48 -54 118 -151 158 -219 l27 -46 -53 -6 c-29 -3 -123 -8 -210
-11 -665 -23 -2290 -260 -3533 -515 -187 -39 -655 -144 -752 -169 l-73 -19 1
121 c1 67 4 147 7 177 l7 54 74 23 c978 306 3273 672 4131 659 l174 -3 42 -46z
m387 -423 c38 -5 52 -12 71 -37 30 -40 119 -327 102 -327 -5 0 -568 -100
-2086 -369 -124 -22 -709 -126 -1300 -231 -591 -105 -1175 -209 -1297 -230
-122 -22 -230 -40 -241 -40 -14 0 -24 10 -31 33 -22 68 -44 247 -45 367 l-1
125 90 22 c676 168 1820 383 2755 517 1004 144 1693 203 1983 170z m-59 -601
c3 -32 40 -463 81 -958 42 -495 91 -1086 110 -1313 19 -228 35 -424 35 -435 0
-24 81 -7 -1115 -229 -176 -32 -439 -81 -585 -108 -468 -86 -2156 -400 -2435
-452 -351 -65 -351 -65 -359 -42 -4 16 -153 578 -545 2059 -27 99 -77 285
-111 412 -35 128 -62 235 -59 237 2 2 108 22 234 45 127 22 635 112 1130 200
495 88 1436 255 2090 371 655 116 1258 224 1340 239 83 16 157 29 166 30 13 1
18 -12 23 -56z m240 -2920 c19 -179 108 -1282 109 -1357 l2 -89 -65 -13 c-36
-7 -272 -54 -525 -104 -253 -50 -674 -133 -935 -185 -1443 -286 -2298 -454
-2324 -457 l-29 -3 -203 745 c-112 409 -202 745 -201 746 1 1 616 115 1367
254 751 139 1685 312 2075 385 391 73 713 133 717 134 3 0 9 -25 12 -56z m140
-1625 c5 -38 52 -581 90 -1048 8 -91 11 -168 7 -171 -3 -4 -96 -23 -206 -43
-204 -38 -475 -88 -1055 -195 -179 -33 -482 -90 -675 -126 -386 -73 -539 -101
-1260 -234 -269 -50 -551 -102 -624 -115 -74 -14 -136 -24 -137 -23 -2 1 -44
155 -93 342 -50 187 -119 448 -155 580 -35 132 -61 243 -57 247 3 3 272 59
596 123 325 64 871 172 1215 240 344 68 810 161 1035 205 226 45 608 121 850
170 242 48 445 88 451 89 7 1 15 -18 18 -41z"/>
<path d="M6685 8242 c-40 -25 -153 -145 -194 -205 -79 -116 -165 -371 -141
-416 17 -32 50 -25 105 20 221 184 349 247 618 305 84 18 107 37 87 74 -15 27
-45 26 -195 -10 -166 -39 -253 -77 -387 -166 -61 -41 -112 -74 -114 -74 -6 0
23 76 51 131 45 88 109 172 192 248 65 60 76 74 67 89 -15 24 -54 26 -89 4z"/>
<path d="M5233 8080 c-78 -47 -118 -160 -116 -330 1 -188 57 -348 150 -430
105 -92 221 -41 271 119 24 78 23 282 -1 371 -22 82 -66 176 -102 218 -57 68
-141 89 -202 52z m53 -198 c20 -13 35 -53 28 -75 -12 -39 -35 -57 -75 -57 -64
0 -92 69 -47 117 21 23 71 31 94 15z"/>
<path d="M6477 7056 c-21 -14 -61 -44 -90 -65 -63 -48 -144 -87 -214 -102 -43
-10 -64 -9 -120 5 -95 23 -106 21 -182 -23 -102 -60 -183 -84 -256 -77 -33 3
-83 13 -112 22 -59 19 -83 14 -83 -15 0 -62 213 -103 336 -66 27 8 50 15 50
15 1 0 3 -35 6 -79 6 -102 39 -164 104 -192 36 -16 51 -18 82 -10 86 24 159
121 197 266 l22 79 67 28 c65 26 246 146 276 183 10 12 11 21 3 33 -16 26 -45
25 -86 -2z m-522 -305 c-8 -85 -1 -113 28 -109 20 3 23 12 31 83 5 44 10 81
12 83 1 2 23 0 49 -4 l47 -7 -6 -38 c-14 -90 -85 -199 -138 -212 -35 -10 -77
40 -88 104 -13 83 -3 137 29 154 14 8 30 14 35 15 4 0 5 -31 1 -69z"/>
<path d="M6940 5554 c-36 -7 -108 -35 -160 -60 -81 -40 -109 -61 -191 -143
-55 -56 -115 -129 -143 -173 -26 -43 -50 -78 -53 -78 -3 0 -18 9 -34 21 -41
29 -206 106 -291 135 -129 45 -274 42 -375 -7 -53 -25 -99 -89 -114 -157 -24
-103 49 -252 195 -398 269 -270 690 -381 804 -213 19 27 35 37 89 52 106 29
171 65 250 140 244 232 375 561 295 739 -29 65 -96 135 -141 148 -44 12 -50
12 -131 -6z"/>
</g>
</svg>
